<?xml version="1.0" encoding="UTF-8"?>
<svg xmlns="http://www.w3.org/2000/svg" width="16" height="16" viewBox="0 0 16 16">
  <!-- Every idea is blocked: nothing moves until a person answers something. The same bulb,
       struck through by a bar heavy enough to be unmistakable at 16px — the one silhouette here
       with a straight diagonal across it. The badge beside it carries how many are waiting. -->
  <g fill="currentColor">
    <path fill-rule="evenodd" d="M8 1.2a4.3 4.3 0 0 0-2.35 7.9v1.05h4.7V9.1A4.3 4.3 0 0 0 8 1.2zm0 1.4a2.9 2.9 0 0 1 1.58 5.33l-0.63 0.41v0.41H7.05v-0.41L6.42 7.93A2.9 2.9 0 0 1 8 2.6z"/>
    <path d="M5.9 11.1h4.2v1.3H5.9z"/>
    <path d="M6.6 13.1h2.8v1.3H6.6z"/>
    <path d="M1.35 13.2L13.2 1.35l1.45 1.45L2.8 14.65z"/>
  </g>
</svg>
